<?xml version="1.0" encoding="UTF-8"?>
<svg version="1.1" xmlns="http://www.w3.org/2000/svg" width="350" height="350">
<path d="M0 0 C1.20527344 0.35449219 2.41054687 0.70898438 3.65234375 1.07421875 C14.48403153 4.26989518 25.1342322 8.08086374 35.8125 11.75 C36.55897797 12.00646301 37.30545593 12.26292603 38.07455444 12.52716064 C40.35182786 13.30965287 42.62903899 14.09232618 44.90625 14.875 C47.18668414 15.65853464 49.46711878 16.44206781 51.74755859 17.22558594 C53.2402345 17.73878429 54.73274964 18.2524505 56.22509766 18.76660156 C60.43245996 20.21612625 64.64246617 21.65732978 68.85726929 23.08508301 C70.76811403 23.73490562 72.67572986 24.39419861 74.58325195 25.05371094 C75.73784912 25.44333008 76.89244629 25.83294922 78.08203125 26.234375 C79.58600464 26.74822754 79.58600464 26.74822754 81.12036133 27.27246094 C84.18627147 28.04706138 86.85068179 28.13213514 90 28 C90 28.66 90 29.32 90 30 C90.69561035 30.2266333 91.3912207 30.4532666 92.10791016 30.68676758 C95.28186822 31.72386882 98.4534319 32.76811396 101.625 33.8125 C102.71941406 34.16892578 103.81382812 34.52535156 104.94140625 34.89257812 C107.97403813 35.89426562 110.98891665 36.93552448 114 38 C115.18335938 38.41636719 116.36671875 38.83273438 117.5859375 39.26171875 C121.06675793 41.76813476 121.98048922 44.97870603 123 49 C123.40827682 52.69981286 123.4105726 56.36445714 123.38818359 60.08398438 C123.39606903 61.71040108 123.39606903 61.71040108 123.40411377 63.36967468 C123.41728228 66.94451451 123.40857652 70.51890581 123.3984375 74.09375 C123.40046147 76.60315027 123.40337559 79.11254997 123.40713501 81.62194824 C123.41155611 86.88749689 123.40543332 92.15293102 123.39111328 97.41845703 C123.37314938 104.09942007 123.38377348 110.77995662 123.40183067 117.46092987 C123.41279556 122.65182118 123.40916232 127.84262941 123.4014473 133.03352356 C123.39947276 135.4921727 123.40180563 137.95082987 123.40888596 140.4094696 C123.51783427 188.94178847 111.00256935 231.21688018 76.4375 266.625 C63.20738775 279.5158786 48.94718307 290.66837584 33 300 C31.2741502 301.06526591 29.54830944 302.13054656 27.82275391 303.19628906 C21.01166955 307.36723437 14.04275856 311.23523848 7 315 C6.11570313 315.48122314 5.23140625 315.96244629 4.3203125 316.45825195 C-0.43015304 318.96118056 -4.51450057 320.98712324 -10 321 C-13.640625 319.8203125 -13.640625 319.8203125 -17.25 318.125 C-18.46324062 317.56445212 -19.67677198 317.004533 -20.890625 316.4453125 C-21.91671875 315.96835937 -22.9428125 315.49140625 -24 315 C-24.99 314.67 -25.98 314.34 -27 314 C-27 313.34 -27 312.68 -27 312 C-27.77472656 311.78988281 -28.54945313 311.57976562 -29.34765625 311.36328125 C-34.36095569 309.49200691 -38.81600175 306.8658315 -43.4375 304.1875 C-44.81131836 303.40536133 -44.81131836 303.40536133 -46.21289062 302.60742188 C-50.2585102 300.28111801 -54.20229538 297.93001649 -57.97265625 295.17578125 C-60.83851127 292.88889703 -60.83851127 292.88889703 -64 292 C-65.34176301 290.67514997 -66.67394585 289.34057299 -68 288 C-70.60946063 286.12593282 -73.27426975 284.35893708 -75.953125 282.5859375 C-76.62859375 282.06257813 -77.3040625 281.53921875 -78 281 C-78 280.34 -78 279.68 -78 279 C-78.87591797 278.58041016 -78.87591797 278.58041016 -79.76953125 278.15234375 C-87.00284025 274.41534523 -91.82214937 269.10021975 -96.8203125 262.76171875 C-102.55593832 254.91515393 -102.55593832 254.91515393 -110 249 C-110.33333333 247.66666667 -110.66666667 246.33333333 -111 245 C-111.66 244.67 -112.32 244.34 -113 244 C-114.01459471 242.3244693 -114.96329094 240.60866437 -115.875 238.875 C-116.4009375 237.88628906 -116.926875 236.89757812 -117.46875 235.87890625 C-118.22671875 234.45384766 -118.22671875 234.45384766 -119 233 C-120.3146678 230.65524189 -121.6551445 228.32763452 -123 226 C-123.66 226 -124.32 226 -125 226 C-125.2475 224.72125 -125.495 223.4425 -125.75 222.125 C-127.81643185 212.27384177 -127.81643185 212.27384177 -134 205 C-133.34 204.67 -132.68 204.34 -132 204 C-132.52400391 202.11667969 -132.52400391 202.11667969 -133.05859375 200.1953125 C-137.57229476 183.69667315 -137.57229476 183.69667315 -138 175 C-138.66 175 -139.32 175 -140 175 C-139.67 174.01 -139.34 173.02 -139 172 C-139.27769908 169.6593935 -139.60539977 167.32375692 -140 165 C-140.33 165 -140.66 165 -141 165 C-141 163.35 -141 161.7 -141 160 C-140.67 160 -140.34 160 -140 160 C-139.97683716 152.22878953 -139.95906477 144.45758714 -139.94818783 136.68635082 C-139.94296764 133.07791615 -139.93588564 129.46950508 -139.92456055 125.86108398 C-139.913701 122.37923767 -139.90771664 118.89741408 -139.90512276 115.41555214 C-139.9023739 113.43964005 -139.89456673 111.4637371 -139.88670349 109.48783875 C-139.88662796 108.28682022 -139.88655243 107.0858017 -139.88647461 105.84838867 C-139.884254 104.78915695 -139.88203339 103.72992523 -139.87974548 102.63859558 C-139.88478478 99.89113189 -139.88478478 99.89113189 -141 97 C-140.85836426 96.30600098 -140.71672852 95.61200195 -140.57080078 94.89697266 C-139.76513631 90.80800145 -139.85741969 86.806074 -139.8671875 82.6484375 C-139.86623077 81.75258942 -139.86527405 80.85674133 -139.86428833 79.93374634 C-139.86360959 78.04599945 -139.86544251 76.15825018 -139.86962891 74.27050781 C-139.87499406 71.37820217 -139.8696671 68.48605092 -139.86328125 65.59375 C-139.86394184 63.75781216 -139.8652226 61.92187441 -139.8671875 60.0859375 C-139.86516327 59.22028168 -139.86313904 58.35462585 -139.86105347 57.46273804 C-139.86420563 56.65825226 -139.86735779 55.85376648 -139.87060547 55.02490234 C-139.87140106 54.31828461 -139.87219666 53.61166687 -139.87301636 52.88363647 C-139.93594819 50.77265236 -139.93594819 50.77265236 -141 48 C-140.01 47.505 -140.01 47.505 -139 47 C-138.5153125 45.91074219 -138.030625 44.82148437 -137.53125 43.69921875 C-134.63443768 38.51218027 -129.90416751 37.53045731 -124.5 35.8125 C-123.4054248 35.44213623 -122.31084961 35.07177246 -121.18310547 34.69018555 C-118.11729698 33.65787332 -115.04487235 32.64866001 -111.96911621 31.64648438 C-108.58903365 30.53676289 -105.2210821 29.39130478 -101.8515625 28.25 C-88.87532007 23.86752087 -75.86216753 19.59851139 -62.8359375 15.3671875 C-61.41983688 14.90704506 -61.41983688 14.90704506 -59.97512817 14.43760681 C-55.39116178 12.9487991 -50.80619229 11.46322037 -46.21923828 9.98364258 C-44.51063006 9.43084775 -42.80213244 8.87771095 -41.09375 8.32421875 C-40.26551224 8.05659729 -39.43727448 7.78897583 -38.5839386 7.51324463 C-34.18691447 6.08087401 -29.81859399 4.5901864 -25.46899414 3.01928711 C-24.56391113 2.69382401 -23.65882813 2.3683609 -22.72631836 2.03303528 C-20.99989046 1.40817574 -19.27643761 0.77501081 -17.55664062 0.13212585 C-10.99118473 -2.24537194 -6.63050386 -2.40863202 0 0 Z M-39 58 C-39.60328125 58.45503906 -40.2065625 58.91007812 -40.828125 59.37890625 C-45.17620793 63.12961743 -47.71319354 67.71410167 -50.3125 72.75 C-50.81922241 73.71462158 -50.81922241 73.71462158 -51.33618164 74.69873047 C-56.60991687 85.48646221 -56.26379126 96.96487562 -56.125 108.6875 C-56.11494292 110.1790304 -56.10582192 111.67056742 -56.09765625 113.16210938 C-56.07587544 116.77487974 -56.0414985 120.38739593 -56 124 C-56.66 124 -57.32 124 -58 124 C-58.495 123.01 -58.495 123.01 -59 122 C-67.37112358 123.12882637 -67.37112358 123.12882637 -74 128 C-77.48830306 133.50378934 -78.58446037 138.13467765 -78.50170898 144.58398438 C-78.50711197 145.40135574 -78.51251495 146.21872711 -78.51808167 147.06086731 C-78.53049825 149.7388734 -78.5141257 152.41578938 -78.49609375 155.09375 C-78.4962489 156.96887264 -78.49774058 158.8439956 -78.50050354 160.71911621 C-78.50188437 164.63954939 -78.48938252 168.55961533 -78.46655273 172.47998047 C-78.43816918 177.49003346 -78.44090973 182.49947679 -78.45364285 187.50957489 C-78.46061783 191.37877555 -78.45278998 195.2478368 -78.44038582 199.11701965 C-78.435889 200.96368372 -78.43551895 202.81036284 -78.43945122 204.6570282 C-78.44238137 207.24366627 -78.42577117 209.82948186 -78.40405273 212.41601562 C-78.40855438 213.16949783 -78.41305603 213.92298004 -78.41769409 214.69929504 C-78.32631969 221.29214161 -76.93015342 226.78032356 -72.5 231.875 C-65.74380622 237.61776471 -59.10040139 237.15132972 -50.6394043 237.16113281 C-49.60935272 237.16609772 -48.57930115 237.17106262 -47.51803589 237.17617798 C-44.12008998 237.19074889 -40.72219073 237.19759281 -37.32421875 237.203125 C-34.95538838 237.20888018 -32.58655802 237.21463786 -30.21772766 237.22039795 C-25.25395491 237.2308932 -20.29019829 237.23674567 -15.32641602 237.24023438 C-8.97802086 237.24571904 -2.62984017 237.26975297 3.71848774 237.29820633 C8.61108517 237.31686359 13.50363122 237.32203994 18.39626122 237.32357025 C20.73613852 237.3265898 23.07601507 237.33459465 25.41585732 237.34775543 C28.69447627 237.36488183 31.9725747 237.36291949 35.2512207 237.35644531 C36.20996597 237.3656601 37.16871124 237.37487488 38.1565094 237.3843689 C44.51067632 237.34522429 51.48285048 236.89754858 56.59058094 232.68962479 C61.96778051 226.69280953 62.28879507 220.31403505 62.1953125 212.69921875 C62.1924826 211.82223831 62.18965271 210.94525787 62.18673706 210.04170227 C62.17559762 207.25682578 62.15051089 204.47227821 62.125 201.6875 C62.11496158 199.79622864 62.10583724 197.90495219 62.09765625 196.01367188 C62.07549506 191.3423279 62.0401759 186.67122153 62 182 C62 181 62 180 62 179 C61.34 179 60.68 179 60 179 C60 178.34 60 177.68 60 177 C60.66 177 61.32 177 62 177 C62.09922655 171.14677826 62.17163763 165.29405123 62.21972656 159.44018555 C62.23978337 157.45084092 62.26703585 155.46155482 62.30175781 153.47241211 C62.35053771 150.60515869 62.37302827 147.73868789 62.390625 144.87109375 C62.42159271 143.54723915 62.42159271 143.54723915 62.45318604 142.19664001 C62.45574636 135.07523611 60.42022875 131.40624787 56.3125 125.625 C53.32740039 123.52736244 50.904748 123.39420205 47.31640625 123.17578125 C44.81604223 122.9860403 42.45305796 122.50932674 40 122 C40.0407666 121.31075439 40.0815332 120.62150879 40.12353516 119.91137695 C41.87126961 90.19512023 41.87126961 90.19512023 29 64 C26.95955036 61.62208021 26.95955036 61.62208021 25 60 C24.34 60 23.68 60 23 60 C22.505 58.515 22.505 58.515 22 57 C21.01 56.67 20.02 56.34 19 56 C18.236875 55.360625 17.47375 54.72125 16.6875 54.0625 C12.69293503 50.99690362 9.66489774 49.81501136 4.625 50.375 C3.75875 50.58125 2.8925 50.7875 2 51 C1.505 49.515 1.505 49.515 1 48 C-14.26366682 47.42521757 -26.55786423 48.13791951 -39 58 Z " fill="#11355A" transform="translate(185,20)"/>
<path d="M0 0 C7.14065542 5.13429325 11.65179788 10.93130896 13.8828125 19.50390625 C14.45073736 23.21606965 14.41849366 26.88119973 14.375 30.625 C14.37048828 31.36556641 14.36597656 32.10613281 14.36132812 32.86914062 C14.34962175 34.68362899 14.33168898 36.49807534 14.3125 38.3125 C14.9725 38.6425 15.6325 38.9725 16.3125 39.3125 C15.6525 39.3125 14.9925 39.3125 14.3125 39.3125 C14.3125 41.9525 14.3125 44.5925 14.3125 47.3125 C14.9725 47.3125 15.6325 47.3125 16.3125 47.3125 C15.3225 50.2825 15.3225 50.2825 14.3125 53.3125 C8.02412854 54.21893192 2.0081833 54.3889241 -4.33203125 54.2734375 C-9.22124703 54.21980808 -13.84192156 54.65358243 -18.6875 55.3125 C-22.06083039 55.49990724 -25.40873026 55.67215399 -28.6875 54.75 C-31.41758006 54.15279499 -33.86464345 54.72021357 -36.59765625 55.1171875 C-41.04012793 55.53237177 -45.42373249 54.5063549 -49.6875 53.3125 C-49.6875 52.6525 -49.6875 51.9925 -49.6875 51.3125 C-50.3475 51.3125 -51.0075 51.3125 -51.6875 51.3125 C-51.6875 50.6525 -51.6875 49.9925 -51.6875 49.3125 C-51.0275 49.3125 -50.3675 49.3125 -49.6875 49.3125 C-49.70844727 48.58772461 -49.72939453 47.86294922 -49.75097656 47.11621094 C-49.83520696 43.76512072 -49.88649504 40.41425429 -49.9375 37.0625 C-49.97101563 35.92296875 -50.00453125 34.7834375 -50.0390625 33.609375 C-50.16464777 22.55787141 -47.94598405 12.79846836 -40.671875 4.21875 C-29.92298424 -6.10695609 -12.57979807 -7.9151414 0 0 Z " fill="#11365B" transform="translate(194.6875,88.6875)"/>
<path d="M0 0 C2.9375 2.5625 2.9375 2.5625 5 5 C5 5.66 5 6.32 5 7 C5.66 7.33 6.32 7.66 7 8 C7.68884749 20.89675583 7.68884749 20.89675583 5.1875 24.625 C3 27 3 27 1.38867188 28.35400391 C-0.4562445 30.5407877 -0.38209689 31.87569221 -0.40625 34.7109375 C-0.42816406 35.62617188 -0.45007813 36.54140625 -0.47265625 37.484375 C-0.48167969 38.43828125 -0.49070313 39.3921875 -0.5 40.375 C-0.61558308 52.49471104 -0.61558308 52.49471104 -5.75 57.8125 C-9.77536428 59.93699781 -13.58586438 59.36890495 -17.875 58.25 C-20 57 -20 57 -20.62670898 55.21972656 C-21.02592708 52.84582797 -21.11308546 50.64133177 -21.09765625 48.234375 C-21.09443359 47.34492188 -21.09121094 46.45546875 -21.08789062 45.5390625 C-21.07951172 44.61867187 -21.07113281 43.69828125 -21.0625 42.75 C-21.05573242 41.34621094 -21.05573242 41.34621094 -21.04882812 39.9140625 C-21.03706918 37.60930959 -21.02063426 35.30468773 -21 33 C-22.32 32.67 -23.64 32.34 -25 32 C-24.67 31.01 -24.34 30.02 -24 29 C-24.33 28.01 -24.66 27.02 -25 26 C-25.99 25.67 -26.98 25.34 -28 25 C-28.66015625 23.2578125 -28.66015625 23.2578125 -29.0625 21.125 C-29.6650556 18.01466536 -30.15919177 16.76121234 -32 14 C-31.54367188 13.58621094 -31.08734375 13.17242187 -30.6171875 12.74609375 C-28.91641964 10.90975744 -28.11563439 9.3462191 -27.125 7.0625 C-24.90071325 2.45323658 -22.18066593 0.17873834 -17.6875 -2.25 C-11.07122962 -4.09640104 -5.97880058 -3.27141918 0 0 Z " fill="#11355A" transform="translate(188,175)"/>
<path d="M0 0 C0.66 0 1.32 0 2 0 C4.99992082 6.66124882 5.4153263 12.21167339 5.34057617 19.46484375 C5.34101425 20.58767258 5.34145233 21.7105014 5.34190369 22.86735535 C5.3398232 26.55758396 5.31652637 30.2473513 5.29296875 33.9375 C5.28737018 36.50439201 5.28310132 39.07128723 5.28010559 41.63818359 C5.26984383 47.69059253 5.24622932 53.74281272 5.21605712 59.79515076 C5.1824366 66.68998235 5.16600795 73.58482209 5.15097082 80.47971535 C5.11967724 94.65323137 5.06696475 108.82660985 5 123 C4.01 123 3.02 123 2 123 C1.99761165 122.41192975 1.99522329 121.8238595 1.99276257 121.21796894 C1.9336077 106.90408114 1.85805455 92.59034923 1.76428509 78.27664661 C1.71933345 71.35461258 1.67991741 64.43262993 1.65356445 57.51049805 C1.62812334 50.83197324 1.58721452 44.15370775 1.53681374 37.475317 C1.52011109 34.92563402 1.50861804 32.37591148 1.50238609 29.82618141 C1.49278225 26.25863229 1.46476617 22.69167233 1.43237305 19.12426758 C1.43380814 18.06690903 1.43524323 17.00955048 1.4367218 15.92015076 C1.36933198 10.68241902 1.18937265 7.36351667 -2 3 C-1 1 -1 1 0 0 Z " fill="#1E2D41" transform="translate(303,61)"/>
<path d="M0 0 C-0.33 1.32 -0.66 2.64 -1 4 C-1.886875 4.061875 -2.77375 4.12375 -3.6875 4.1875 C-8.75272521 5.42991373 -10.9612693 8.30161336 -13.62225342 12.65248108 C-15.26619067 16.64676502 -15.40774766 20.12908958 -15.35644531 24.37280273 C-15.35848969 25.19148834 -15.36053406 26.01017395 -15.36264038 26.85366821 C-15.36563676 29.54720754 -15.34720261 32.24012762 -15.328125 34.93359375 C-15.32506464 36.81396839 -15.32319063 38.6943453 -15.32244873 40.57472229 C-15.31785247 44.51124788 -15.30345449 48.44756813 -15.28125 52.3840332 C-15.25298794 57.41874605 -15.24203924 62.45329729 -15.2375679 67.48808193 C-15.23239969 72.30327313 -15.21786133 77.11842414 -15.203125 81.93359375 C-15.20124428 82.84704496 -15.19936356 83.76049618 -15.19742584 84.70162773 C-15.19051471 87.30040742 -15.17685916 89.89906322 -15.16113281 92.49780273 C-15.16001495 93.25802231 -15.15889709 94.01824188 -15.15774536 94.80149841 C-15.12993404 98.28953783 -14.92807417 101.44242333 -14.3649292 104.90638733 C-14.18428925 106.4377256 -14.18428925 106.4377256 -14 108 C-14.99 108.99 -14.99 108.99 -16 110 C-18.54480847 104.08272748 -19.42757898 99.41922305 -19.34057617 93.01367188 C-19.34101425 92.15418945 -19.34145233 91.29470703 -19.34190369 90.40917969 C-19.33982969 87.59546423 -19.31656489 84.78236013 -19.29296875 81.96875 C-19.28736784 80.00720546 -19.28310008 78.0456567 -19.28010559 76.08410645 C-19.26869578 70.94169361 -19.23926203 65.79953824 -19.20599365 60.65722656 C-19.17520924 55.40172813 -19.16158241 50.14618777 -19.14648438 44.890625 C-19.11438848 34.59363738 -19.06323913 24.29684017 -19 14 C-18.34 14 -17.68 14 -17 14 C-16.79697266 13.11248047 -16.79697266 13.11248047 -16.58984375 12.20703125 C-15.14987329 6.92139118 -13.63664379 3.73472811 -8.91796875 0.796875 C-5.90862798 -0.45344174 -3.19275301 -0.32579112 0 0 Z " fill="#0C1E36" transform="translate(123,140)"/>
<path d="M0 0 C0.66 0 1.32 0 2 0 C2.33 5.61 2.66 11.22 3 17 C4.52625 17.2475 6.0525 17.495 7.625 17.75 C13.51878405 18.94873574 17.25190507 20.88063392 21.13270569 25.58566284 C23.49817933 29.9109181 23.55921946 33.03898956 23.50170898 37.87939453 C23.50711197 38.75166687 23.51251495 39.62393921 23.51808167 40.52264404 C23.530544 43.39305002 23.51409732 46.26244828 23.49609375 49.1328125 C23.49624877 51.13247734 23.49773821 53.13214249 23.50050354 55.13180542 C23.50188632 59.31635875 23.48934736 63.50056882 23.46655273 67.68505859 C23.43813181 73.04978748 23.44091707 78.41394774 23.45364285 83.77871895 C23.46059482 87.90510928 23.45281684 92.03136802 23.44038582 96.15774155 C23.43586923 98.136102 23.43553632 100.11447656 23.43945122 102.09283829 C23.44235963 104.85531894 23.4258755 107.61701322 23.40405273 110.37939453 C23.40855438 111.19715363 23.41305603 112.01491272 23.41769409 112.85745239 C23.36119165 117.15933663 23.1316802 119.89706092 20 123 C20.00523682 121.73816895 20.01047363 120.47633789 20.01586914 119.17626953 C20.03393458 114.50602932 20.04543769 109.83579221 20.05493164 105.16552734 C20.05996831 103.14208457 20.06679789 101.11864544 20.07543945 99.09521484 C20.08753412 96.19107157 20.09323488 93.28697631 20.09765625 90.3828125 C20.10281754 89.47443634 20.10797882 88.56606018 20.11329651 87.63015747 C20.11337204 86.78943695 20.11344757 85.94871643 20.11352539 85.08251953 C20.11685631 83.96999313 20.11685631 83.96999313 20.12025452 82.83499146 C20.11269473 80.90225085 20.11269473 80.90225085 19 79 C19.66 79 20.32 79 21 79 C21 78.34 21 77.68 21 77 C20.34 77 19.68 77 19 77 C19 76.34 19 75.68 19 75 C19.66 75 20.32 75 21 75 C20.95572518 69.14618135 20.88576308 63.29342877 20.79248047 57.44018555 C20.76433868 55.45101427 20.74309049 53.46173257 20.72900391 51.47241211 C20.70748018 48.6047338 20.66078188 45.73837351 20.609375 42.87109375 C20.60814636 41.98852402 20.60691772 41.10595428 20.60565186 40.19664001 C20.44650955 33.41452002 18.70744209 29.48815952 14.5234375 24.09765625 C12.52166542 22.6553538 11.07411068 22.56706046 8.625 22.4375 C5.03577013 22.23398697 2.29649818 21.45022623 -1 20 C-1.02703562 17.41659616 -1.04685611 14.83347692 -1.0625 12.25 C-1.07087891 11.52039063 -1.07925781 10.79078125 -1.08789062 10.0390625 C-1.10391684 6.51329442 -0.95292713 3.38965084 0 0 Z " fill="#22374F" transform="translate(226,122)"/>
<path d="M0 0 C6.43251285 1.00061311 9.99597522 4.2954898 14.875 8.4453125 C25.40068546 17.23238027 37.69727265 23.97552533 49.61132812 30.65966797 C51.19641874 31.54909433 52.77849735 32.44391119 54.35742188 33.34423828 C56.60417406 34.62166384 58.86206608 35.87651093 61.125 37.125 C61.78677246 37.50342041 62.44854492 37.88184082 63.13037109 38.27172852 C68.84980991 41.3632198 74.59176297 42.92426767 80.99609375 41.1875 C82.20458984 40.5996875 82.20458984 40.5996875 83.4375 40 C84.93699219 39.28662657 86.45463162 38.60763067 88 38 C90 39 90 39 91 41 C89.48615887 41.82545462 87.96348161 42.63471087 86.4375 43.4375 C85.59058594 43.88996094 84.74367188 44.34242188 83.87109375 44.80859375 C78.96518551 46.8443788 75.47354931 47.47748057 70.359375 45.8203125 C69.16828125 45.26085937 67.9771875 44.70140625 66.75 44.125 C65.53675938 43.56445212 64.32322802 43.004533 63.109375 42.4453125 C61.57023437 41.72988281 61.57023437 41.72988281 60 41 C59.01 40.67 58.02 40.34 57 40 C57 39.34 57 38.68 57 38 C56.22527344 37.78988281 55.45054687 37.57976562 54.65234375 37.36328125 C49.63904431 35.49200691 45.18399825 32.8658315 40.5625 30.1875 C39.64662109 29.66607422 38.73074219 29.14464844 37.78710938 28.60742188 C33.7414898 26.28111801 29.79770462 23.93001649 26.02734375 21.17578125 C23.16148873 18.88889703 23.16148873 18.88889703 20 18 C18.65823699 16.67514997 17.32605415 15.34057299 16 14 C13.39053937 12.12593282 10.72573025 10.35893708 8.046875 8.5859375 C7.37140625 8.06257813 6.6959375 7.53921875 6 7 C6 6.34 6 5.68 6 5 C5.38125 4.731875 4.7625 4.46375 4.125 4.1875 C2 3 2 3 0 0 Z " fill="#13253A" transform="translate(101,294)"/>
<path d="M0 0 C2.63050716 0.91877134 4.95123363 1.95953545 7.3828125 3.31640625 C8.28257812 3.81011719 9.18234375 4.30382812 10.109375 4.8125 C20.97409001 11.09023879 20.97409001 11.09023879 22.3828125 15.31640625 C23.4965625 16.39921875 23.4965625 16.39921875 24.6328125 17.50390625 C32.92781338 25.98742988 36.61995043 36.82152577 36.6328125 48.62890625 C36.56996582 50.52552924 36.49442891 52.42202766 36.3828125 54.31640625 C34.0880969 52.51784538 33.42857234 51.53747139 32.828125 48.63671875 C32.72242188 47.58226562 32.61671875 46.5278125 32.5078125 45.44140625 C30.80953478 32.77508492 26.47773355 22.21677924 16.3828125 14.31640625 C15.7228125 13.65640625 15.0628125 12.99640625 14.3828125 12.31640625 C13.3928125 11.98640625 12.4028125 11.65640625 11.3828125 11.31640625 C10.7846875 10.67703125 10.1865625 10.03765625 9.5703125 9.37890625 C6.0815969 6.08954583 2.73064054 5.36632581 -1.9921875 5.19140625 C-3.2915625 5.25328125 -3.2915625 5.25328125 -4.6171875 5.31640625 C-4.9471875 4.65640625 -5.2771875 3.99640625 -5.6171875 3.31640625 C-12.8771875 3.31640625 -20.1371875 3.31640625 -27.6171875 3.31640625 C-27.9471875 2.32640625 -28.2771875 1.33640625 -28.6171875 0.31640625 C-21.40301766 -3.29067867 -7.74027644 -1.46279522 0 0 Z " fill="#162A43" transform="translate(191.6171875,65.68359375)"/>
<path d="M0 0 C1.90275601 3.46973154 3.01083537 7.04155089 4.1875 10.8125 C6.79933861 18.8870789 10.21927177 26.41299808 14 34 C14.44859375 34.93199219 14.8971875 35.86398438 15.359375 36.82421875 C18.84361077 43.67996501 23.32358072 49.64910294 28.0378418 55.69506836 C28.80414917 56.68325562 28.80414917 56.68325562 29.5859375 57.69140625 C30.0504834 58.28123291 30.5150293 58.87105957 30.99365234 59.47875977 C32 61 32 61 32 63 C32.66 63 33.32 63 34 63 C38 67.47058824 38 67.47058824 38 70 C34.205764 69.45677238 32.7689044 67.9784232 30.375 65.0625 C29.78460938 64.35222656 29.19421875 63.64195312 28.5859375 62.91015625 C28.06257813 62.27980469 27.53921875 61.64945312 27 61 C25.15811388 58.94729537 25.15811388 58.94729537 23 58 C22.66666667 56.66666667 22.33333333 55.33333333 22 54 C21.34 53.67 20.68 53.34 20 53 C18.98540529 51.3244693 18.03670906 49.60866437 17.125 47.875 C16.5990625 46.88628906 16.073125 45.89757812 15.53125 44.87890625 C15.0259375 43.92886719 14.520625 42.97882813 14 42 C12.6853322 39.65524189 11.3448555 37.32763452 10 35 C9.34 35 8.68 35 8 35 C7.7525 33.72125 7.505 32.4425 7.25 31.125 C5.18356815 21.27384177 5.18356815 21.27384177 -1 14 C-0.34 13.67 0.32 13.34 1 13 C0.01 9.37 -0.98 5.74 -2 2 C-1.34 2 -0.68 2 0 2 C0 1.34 0 0.68 0 0 Z " fill="#13253C" transform="translate(52,211)"/>
<path d="M0 0 C0.66 0.33 1.32 0.66 2 1 C2.00808685 1.64098633 2.01617371 2.28197266 2.02450562 2.94238281 C2.1114348 9.69256422 2.21096152 16.44248122 2.31738281 23.19238281 C2.35536011 25.7021028 2.39026367 28.21187145 2.421875 30.72167969 C2.6276627 49.32078836 2.6276627 49.32078836 4.5234375 67.80078125 C5.27465709 72.84380455 5.63415379 77.91666312 6 83 C5.01 83 4.02 83 3 83 C2.66048381 81.43883181 2.32867456 79.87598662 2 78.3125 C1.814375 77.44238281 1.62875 76.57226562 1.4375 75.67578125 C1.01027953 73.06287036 0.92383799 70.64186962 1 68 C0.34 68 -0.32 68 -1 68 C-0.67 67.01 -0.34 66.02 0 65 C-0.27769908 62.6593935 -0.60539977 60.32375692 -1 58 C-1.33 58 -1.66 58 -2 58 C-2 56.35 -2 54.7 -2 53 C-1.67 53 -1.34 53 -1 53 C-1.00523682 52.21165771 -1.01047363 51.42331543 -1.01586914 50.61108398 C-1.11275984 33.70672285 -0.92887007 16.88553087 0 0 Z " fill="#0E213C" transform="translate(46,127)"/>
<path d="M0 0 C7.72728623 3.48485458 13.10325996 9.17574006 16.381073 17.01911926 C17.4252841 20.3611251 17.25667588 23.67191779 17.07421875 27.12109375 C17.05153931 27.7824231 17.02885986 28.44375244 17.00549316 29.12512207 C16.91718127 31.56328622 16.80074564 34.00036668 16.6875 36.4375 C16.460625 41.903125 16.23375 47.36875 16 53 C-3.8 53 -23.6 53 -44 53 C-44 52.67 -44 52.34 -44 52 C-24.53 52 -5.06 52 15 52 C15.86649713 27.9716354 15.86649713 27.9716354 5.4453125 7.4921875 C3.99596124 6.28800013 2.49960109 5.14100083 1 4 C-0.01680311 3.01709032 -1.02738219 2.02665213 -2 1 C-1.34 0.67 -0.68 0.34 0 0 Z " fill="#08172E" transform="translate(191,87)"/>
<path d="M0 0 C1.32 0.66 2.64 1.32 4 2 C-9.09058834 13.29800327 -23.02814452 22.41135476 -38 31 C-38.66 30.34 -39.32 29.68 -40 29 C-36.54540366 25.06983586 -32.5682653 22.88409087 -28.0625 20.375 C-17.86611899 14.54584106 -8.99420683 7.52848423 0 0 Z " fill="#112138" transform="translate(246,295)"/>
<path d="M0 0 C0.33 0 0.66 0 1 0 C1 5.28 1 10.56 1 16 C1.66 16.33 2.32 16.66 3 17 C2.34 17 1.68 17 1 17 C1 19.64 1 22.28 1 25 C1.66 25 2.32 25 3 25 C2.34 26.98 1.68 28.96 1 31 C-5.28837146 31.90643192 -11.3043167 32.0764241 -17.64453125 31.9609375 C-22.53374703 31.90730808 -27.15442156 32.34108243 -32 33 C-35.37333039 33.18740724 -38.72123026 33.35965399 -42 32.4375 C-44.72947462 31.84042743 -47.17700908 32.40887747 -49.91015625 32.80078125 C-54.89001877 33.27549712 -58.58271506 32.20864247 -63 30 C-42.21 30 -21.42 30 0 30 C0 20.1 0 10.2 0 0 Z " fill="#0D1D46" transform="translate(208,111)"/>
<path d="M0 0 C0.66 0 1.32 0 2 0 C3.59243788 3.51995461 4.24360886 6.22512842 4.20254517 10.08100891 C4.19688034 11.08075241 4.19121552 12.08049591 4.18537903 13.11053467 C4.16883774 14.19594543 4.15229645 15.2813562 4.13525391 16.3996582 C4.12579239 17.55130966 4.11633087 18.70296112 4.10658264 19.88951111 C4.07292398 23.69342998 4.02480254 27.49702166 3.9765625 31.30078125 C3.95039347 33.93921556 3.92512661 36.57765897 3.90072632 39.21611023 C3.84156124 45.44925859 3.77198719 51.68224538 3.69865549 57.91524142 C3.61565693 65.01308791 3.54428942 72.11103651 3.47388959 79.2090174 C3.32885079 93.80615893 3.16923562 108.4031192 3 123 C2.67 123 2.34 123 2 123 C1.99761165 122.41192975 1.99522329 121.8238595 1.99276257 121.21796894 C1.9336077 106.90408114 1.85805455 92.59034923 1.76428509 78.27664661 C1.71933345 71.35461258 1.67991741 64.43262993 1.65356445 57.51049805 C1.62812334 50.83197324 1.58721452 44.15370775 1.53681374 37.475317 C1.52011109 34.92563402 1.50861804 32.37591148 1.50238609 29.82618141 C1.49278225 26.25863229 1.46476617 22.69167233 1.43237305 19.12426758 C1.43380814 18.06690903 1.43524323 17.00955048 1.4367218 15.92015076 C1.36933198 10.68241902 1.18937265 7.36351667 -2 3 C-1 1 -1 1 0 0 Z " fill="#071B36" transform="translate(303,61)"/>
<path d="M0 0 C0.66 0 1.32 0 2 0 C2.33 5.61 2.66 11.22 3 17 C4.52625 17.2475 6.0525 17.495 7.625 17.75 C13.78275295 19.00242433 17.47182986 21.02946483 21.375 26.0625 C23 29 23 29 23 32 C22.34 32 21.68 32 21 32 C20.34 31.01 19.68 30.02 19 29 C15.91396159 25.58033582 13.49520502 23.20603062 9 22 C7.989375 22 6.97875 22 5.9375 22 C2.87311274 22 1.61770383 21.44114447 -1 20 C-1.02703562 17.41659616 -1.04685611 14.83347692 -1.0625 12.25 C-1.07087891 11.52039063 -1.07925781 10.79078125 -1.08789062 10.0390625 C-1.10391684 6.51329442 -0.95292713 3.38965084 0 0 Z " fill="#162A46" transform="translate(226,122)"/>
<path d="M0 0 C0.33 0 0.66 0 1 0 C1.75937015 12.26957498 2.26119381 24.53066473 2.55761719 36.82006836 C2.6263921 39.6191576 2.70372599 42.41793773 2.78125 45.21679688 C2.82603366 46.99998719 2.87032435 48.78318998 2.9140625 50.56640625 C2.94990952 51.81920128 2.94990952 51.81920128 2.98648071 53.0973053 C3.02998803 55.06439428 3.0205961 57.03253774 3 59 C2.505 59.495 2.505 59.495 2 60 C1.84313751 61.55948542 1.74923361 63.12542668 1.68359375 64.69140625 C1.64169922 65.63564453 1.59980469 66.57988281 1.55664062 67.55273438 C1.51732422 68.54595703 1.47800781 69.53917969 1.4375 70.5625 C1.39431641 71.55958984 1.35113281 72.55667969 1.30664062 73.58398438 C1.20019702 76.0558415 1.09818072 78.5278031 1 81 C0.67 81 0.34 81 0 81 C0 54.27 0 27.54 0 0 Z " fill="#182D4A" transform="translate(105,159)"/>
<path d="M0 0 C0.33 0 0.66 0 1 0 C1.69742587 4.46352555 0.18917683 7.3950034 -2.31263733 10.9589386 C-6.16410538 15.61773716 -10.63785268 17.7190471 -16.62625122 18.43130493 C-21.03426029 18.64128145 -25.4370407 18.56319438 -29.84765625 18.48828125 C-31.47146001 18.4789405 -33.09527799 18.47183036 -34.71910095 18.46684265 C-38.96580816 18.44787172 -43.2116424 18.39885892 -47.45800781 18.34332275 C-51.80196325 18.29191439 -56.14606156 18.26928283 -60.49023438 18.24414062 C-68.99388748 18.19072836 -77.49683474 18.10553871 -86 18 C-86 17.67 -86 17.34 -86 17 C-85.10686096 16.98969254 -84.21372192 16.97938507 -83.29351807 16.96876526 C-74.87706472 16.87079295 -66.46068161 16.76827879 -58.04434586 16.66066074 C-53.71741504 16.6054934 -49.3904774 16.55208333 -45.06347656 16.50268555 C-40.88779626 16.45495067 -36.71219692 16.40260463 -32.53661346 16.34705925 C-30.94343837 16.32667702 -29.35024111 16.30795718 -27.75702667 16.29092598 C-25.52576185 16.26679034 -23.29464895 16.23674858 -21.06347656 16.20532227 C-19.15819183 16.18200584 -19.15819183 16.18200584 -17.2144165 16.15821838 C-14.61095033 16.03007189 -12.47114652 15.77243288 -10 15 C-10 14.34 -10 13.68 -10 13 C-9.278125 12.484375 -8.55625 11.96875 -7.8125 11.4375 C-4.06036355 8.18564841 -2.205642 4.39251258 0 0 Z " fill="#071733" transform="translate(248,241)"/>
<path d="M0 0 C0.99 0 1.98 0 3 0 C2.54692776 6.19885205 -0.35808988 11.01401779 -3.25 16.375 C-3.72824219 17.2825 -4.20648438 18.19 -4.69921875 19.125 C-7.59140325 24.56450147 -10.67307197 29.81533478 -14 35 C-14.66 34.01 -15.32 33.02 -16 32 C-14.96734258 28.47175381 -13.19870772 25.53343082 -11.25 22.4375 C-6.87791679 15.27928533 -3.02349649 7.82971495 0 0 Z " fill="#101F33" transform="translate(294,230)"/>
<path d="M0 0 C-7.21483107 3.02408877 -14.47772784 5.72405911 -22.11328125 7.48828125 C-25.80151263 8.32491117 -25.80151263 8.32491117 -28.375 10.9375 C-28.58125 11.618125 -28.7875 12.29875 -29 13 C-29.33 13.99 -29.66 14.98 -30 16 C-30.22797562 18.73289293 -30.41668187 21.45042204 -30.5625 24.1875 C-30.60568359 24.93708984 -30.64886719 25.68667969 -30.69335938 26.45898438 C-30.79922685 28.30578375 -30.9000976 30.15286834 -31 32 C-31.99 31.34 -32.98 30.68 -34 30 C-34.2578125 27.28515625 -34.2578125 27.28515625 -34.125 24.0625 C-33.94921985 19.45151804 -33.94921985 19.45151804 -35 15 C-34.34 14.67 -33.68 14.34 -33 14 C-32.195625 12.329375 -32.195625 12.329375 -31.375 10.625 C-29.39321417 7.08093045 -27.36982012 5.82075034 -23.4140625 4.61328125 C-22.61742187 4.41089844 -21.82078125 4.20851563 -21 4 C-20.01773438 3.74605469 -19.03546875 3.49210937 -18.0234375 3.23046875 C-15.94467241 2.70690881 -13.86261955 2.19621386 -11.77734375 1.69921875 C-8.84021474 1.00441731 -8.84021474 1.00441731 -5.4375 -0.25 C-3 -1 -3 -1 0 0 Z " fill="#162A46" transform="translate(79,53)"/>
<path d="M0 0 C0.62721538 10.76719736 0.62721538 10.76719736 -1.8125 15.5625 C-4 18 -4 18 -5.61132812 19.35791016 C-7.45803089 21.54161669 -7.38210859 22.87706537 -7.40625 25.7109375 C-7.42816406 26.62617188 -7.45007813 27.54140625 -7.47265625 28.484375 C-7.48167969 29.43828125 -7.49070313 30.3921875 -7.5 31.375 C-7.61558308 43.49471104 -7.61558308 43.49471104 -12.75 48.8125 C-15.88254404 50.46578713 -18.51819328 50.20087346 -22 50 C-21.67 49.01 -21.34 48.02 -21 47 C-19.906875 46.690625 -18.81375 46.38125 -17.6875 46.0625 C-13.74116651 44.92542086 -12.50609295 44.15064319 -10 41 C-9.42785806 38.48440355 -9.42785806 38.48440355 -9.53125 35.75390625 C-9.50998047 34.25053711 -9.50998047 34.25053711 -9.48828125 32.71679688 C-9.49607924 30.61783849 -9.50389168 28.51888015 -9.51171875 26.41992188 C-9.40167753 18.63200452 -9.40167753 18.63200452 -7.03125 14.90234375 C-6.3609375 14.27457031 -5.690625 13.64679688 -5 13 C-3.45368616 9.90737233 -3.60939284 6.6329109 -3.37890625 3.21484375 C-3.19134766 2.11849609 -3.19134766 2.11849609 -3 1 C-1 0 -1 0 0 0 Z " fill="#172637" transform="translate(195,184)"/>
<path d="M0 0 C1.32 0.66 2.64 1.32 4 2 C3.43152344 2.68964844 2.86304688 3.37929688 2.27734375 4.08984375 C1.11912109 5.49943359 1.11912109 5.49943359 -0.0625 6.9375 C-0.88363281 7.93652344 -1.70476562 8.93554688 -2.55078125 9.96484375 C-4.67987894 12.60329495 -6.72268433 15.28348651 -8.75 18 C-11.17134887 21.15509095 -13.30545711 23.32066232 -17 25 C-17.33 23.68 -17.66 22.36 -18 21 C-17.38125 20.7525 -16.7625 20.505 -16.125 20.25 C-13.89649204 19.20384648 -13.89649204 19.20384648 -13.14453125 17.23046875 C-11.6844833 14.38511934 -9.7484789 12.39205716 -7.5625 10.0625 C-4.56820342 6.87088569 -2.13044623 3.82932296 0 0 Z " fill="#122338" transform="translate(275,264)"/>
<path d="M0 0 C3.63 0 7.26 0 11 0 C11 0.66 11 1.32 11 2 C18.92 4.64 26.84 7.28 35 10 C35 10.99 35 11.98 35 13 C26.98908358 10.91969601 19.15032706 8.46670598 11.3125 5.8125 C10.21744141 5.44447266 9.12238281 5.07644531 7.99414062 4.69726562 C5.32847837 3.80095124 2.6638015 2.90182617 0 2 C0 1.34 0 0.68 0 0 Z " fill="#192E48" transform="translate(264,48)"/>
<path d="M0 0 C0.99 0.33 1.98 0.66 3 1 C3.33 8.59 3.66 16.18 4 24 C5.32 24.66 6.64 25.32 8 26 C8 26.66 8 27.32 8 28 C9.65 28 11.3 28 13 28 C13 28.33 13 28.66 13 29 C9.7 29 6.4 29 3 29 C1.32101428 25.309177 0.71566858 22.30500408 0.5859375 18.26171875 C0.54726562 17.19501953 0.50859375 16.12832031 0.46875 15.02929688 C0.4378125 13.92650391 0.406875 12.82371094 0.375 11.6875 C0.33632812 10.56537109 0.29765625 9.44324219 0.2578125 8.28710938 C0.16377989 5.52490148 0.07812659 2.762696 0 0 Z " fill="#223952" transform="translate(166,204)"/>
<path d="M0 0 C0 0.33 0 0.66 0 1 C-1.01707031 1.02126953 -1.01707031 1.02126953 -2.0546875 1.04296875 C-10.29447604 1.46522938 -17.3043849 3.10243871 -23.14453125 9.26171875 C-25.3561658 12.05891846 -27.40317405 14.8063481 -29 18 C-29.66 17.67 -30.32 17.34 -31 17 C-28.14991892 9.73229324 -25.02064444 4.93156089 -18 1 C-12.22595169 -0.64972809 -5.96050791 -0.08680351 0 0 Z " fill="#132944" transform="translate(180,86)"/>
<path d="M0 0 C0.33 0 0.66 0 1 0 C1.4832687 11.65214535 -0.19133452 22.98026121 -4 34 C-6.58744155 30.11883767 -5.84540962 27.4979322 -5.1875 23.125 C-5.09146484 22.41730469 -4.99542969 21.70960938 -4.89648438 20.98046875 C-4.61948318 18.98382925 -4.31057589 16.99169314 -4 15 C-3.85175781 14.02804688 -3.70351563 13.05609375 -3.55078125 12.0546875 C-3.36902344 11.37664062 -3.18726563 10.69859375 -3 10 C-2.34 9.67 -1.68 9.34 -1 9 C-0.53348793 6.87423218 -0.53348793 6.87423218 -0.375 4.4375 C-0.30023438 3.61121094 -0.22546875 2.78492188 -0.1484375 1.93359375 C-0.09945313 1.29550781 -0.05046875 0.65742188 0 0 Z " fill="#102036" transform="translate(306,184)"/>
<path d="M0 0 C4.19921466 -0.02476851 8.39839029 -0.04289246 12.59765625 -0.05493164 C14.02539816 -0.05995206 15.45313496 -0.06676972 16.88085938 -0.07543945 C18.93621079 -0.08760553 20.99149407 -0.09325128 23.046875 -0.09765625 C24.90070801 -0.10551147 24.90070801 -0.10551147 26.79199219 -0.11352539 C29.4145671 -0.02071737 31.51644594 0.21643327 34 1 C34 1.66 34 2.32 34 3 C32.25008666 3.02715383 30.50005055 3.04646551 28.75 3.0625 C27.28820312 3.07990234 27.28820312 3.07990234 25.796875 3.09765625 C23 3 23 3 20.87890625 2.46484375 C18.20098197 1.80232194 15.78192283 2.41476619 13.08984375 2.80078125 C8.23180701 3.26388382 4.23560692 2.25592107 0 0 Z " fill="#142266" transform="translate(145,141)"/>
<path d="M0 0 C1.32 0.33 2.64 0.66 4 1 C3.51789063 1.88300781 3.03578125 2.76601562 2.5390625 3.67578125 C-1.36971977 11.03239963 -4.15874625 17.58746248 -5 26 C-5.99 25.67 -6.98 25.34 -8 25 C-7.85769192 23.58297487 -7.71099254 22.1663904 -7.5625 20.75 C-7.48128906 19.96109375 -7.40007812 19.1721875 -7.31640625 18.359375 C-6.57477932 12.82921862 -5.01473085 7.01473085 -1 3 C-0.67 2.01 -0.34 1.02 0 0 Z " fill="#0C192B" transform="translate(135,86)"/>
<path d="M0 0 C-3.59902178 2.39934786 -7.19061411 3.6365106 -11.25 5.0625 C-12.35794922 5.4656543 -12.35794922 5.4656543 -13.48828125 5.87695312 C-18.0088333 7.47549049 -22.23090138 8.48902515 -27 9 C-24.88864805 5.83297207 -24.48816785 5.53219903 -21.11328125 4.39453125 C-20.33919922 4.13349609 -19.56511719 3.87246094 -18.76757812 3.60351562 C-17.95740234 3.34248047 -17.14722656 3.08144531 -16.3125 2.8125 C-15.12624023 2.40354492 -15.12624023 2.40354492 -13.91601562 1.98632812 C-9.0816459 0.39350111 -5.08567393 -0.3063659 0 0 Z " fill="#192D4B" transform="translate(112,41)"/>
<path d="M0 0 C3.62585057 1.14315382 7.25053042 2.28997586 10.875 3.4375 C12.42380859 3.92573242 12.42380859 3.92573242 14.00390625 4.42382812 C14.99003906 4.73642578 15.97617188 5.04902344 16.9921875 5.37109375 C17.90339355 5.65911865 18.81459961 5.94714355 19.75341797 6.24389648 C22 7 22 7 24 8 C24 8.66 24 9.32 24 10 C18.69107527 9.36599455 13.73893975 8.23675062 8.625 6.6875 C7.90183594 6.48705078 7.17867187 6.28660156 6.43359375 6.08007812 C4.3515625 5.44921875 4.3515625 5.44921875 1 4 C0.29052734 1.90942383 0.29052734 1.90942383 0 0 Z " fill="#192D47" transform="translate(238,38)"/>
<path d="M0 0 C-4.65372892 1.70418242 -9.32320301 3.36046482 -14 5 C-14.97485352 5.34256836 -15.94970703 5.68513672 -16.95410156 6.03808594 C-20.17362078 7.16269219 -23.39855024 8.27044963 -26.625 9.375 C-28.20764648 9.92994141 -28.20764648 9.92994141 -29.82226562 10.49609375 C-31.32176758 11.00462891 -31.32176758 11.00462891 -32.8515625 11.5234375 C-34.19468506 11.9862915 -34.19468506 11.9862915 -35.56494141 12.45849609 C-38.14221063 13.03162454 -39.53804345 12.8688837 -42 12 C-41.31897217 11.76812988 -40.63794434 11.53625977 -39.9362793 11.29736328 C-36.85180381 10.24438445 -33.76964687 9.18477447 -30.6875 8.125 C-29.61564453 7.76019531 -28.54378906 7.39539062 -27.43945312 7.01953125 C-26.41142578 6.66503906 -25.38339844 6.31054688 -24.32421875 5.9453125 C-23.37635498 5.62062988 -22.42849121 5.29594727 -21.4519043 4.96142578 C-18.80576974 4.02411264 -18.80576974 4.02411264 -16 2 C-14.34763368 1.58419071 -12.67777815 1.23460655 -11 0.9375 C-2.03188406 -0.67729469 -2.03188406 -0.67729469 0 0 Z " fill="#102543" transform="translate(172,22)"/>
<path d="M0 0 C-0.33 1.32 -0.66 2.64 -1 4 C-1.886875 4.061875 -2.77375 4.12375 -3.6875 4.1875 C-7.78106188 5.19158122 -9.17526011 6.95225433 -12 10 C-14.3125 11.3125 -14.3125 11.3125 -16 12 C-15.21068928 7.52723923 -14.45907412 4.90780896 -10.8125 2.0625 C-7.20832583 -0.25446911 -4.27847608 -0.43657919 0 0 Z " fill="#12253B" transform="translate(123,140)"/>
<path d="M0 0 C0.33 0 0.66 0 1 0 C1 9.57 1 19.14 1 29 C0.34 29.33 -0.32 29.66 -1 30 C-1.19224376 26.0495047 -1.37096681 22.09865416 -1.53710938 18.14697266 C-1.59555475 16.80240434 -1.65771076 15.45799202 -1.72363281 14.11376953 C-1.81767443 12.18306663 -1.89732692 10.2516797 -1.9765625 8.3203125 C-2.05511475 6.57645264 -2.05511475 6.57645264 -2.13525391 4.79736328 C-2 2 -2 2 0 0 Z " fill="#112947" transform="translate(147,110)"/>
<path d="M0 0 C-2.59338873 1.72892582 -5.08293062 3.07541144 -7.875 4.4375 C-11.34955444 6.15445819 -14.72208865 7.92398948 -18 10 C-18.33 9.01 -18.66 8.02 -19 7 C-12.83075697 1.56519066 -8.58673462 -1.88908162 0 0 Z " fill="#10213B" transform="translate(163,69)"/>
<path d="M0 0 C1.65 0 3.3 0 5 0 C7.29612756 11.52164009 7.29612756 11.52164009 7 17 C6.01 17 5.02 17 4 17 C3.66048381 15.43883181 3.32867456 13.87598662 3 12.3125 C2.814375 11.44238281 2.62875 10.57226562 2.4375 9.67578125 C2.01027953 7.06287036 1.92383799 4.64186962 2 2 C1.34 2 0.68 2 0 2 C0 1.34 0 0.68 0 0 Z " fill="#142942" transform="translate(45,193)"/>
<path d="M0 0 C2.125 0.9375 2.125 0.9375 4 2 C4 2.66 4 3.32 4 4 C4.99 4.33 5.98 4.66 7 5 C7.33 13.25 7.66 21.5 8 30 C7.34 29.67 6.68 29.34 6 29 C5.67 21.41 5.34 13.82 5 6 C4.67 6.99 4.34 7.98 4 9 C2.68 8.67 1.36 8.34 0 8 C0.33 7.01 0.66 6.02 1 5 C0.67 4.01 0.34 3.02 0 2 C-0.66 1.67 -1.32 1.34 -2 1 C-1.34 0.67 -0.68 0.34 0 0 Z " fill="#102844" transform="translate(163,199)"/>
<path d="M0 0 C5.79548322 2.6136493 10.71088395 6.46043613 14 12 C13.6875 14.25 13.6875 14.25 13 16 C12.77183594 15.42378906 12.54367188 14.84757812 12.30859375 14.25390625 C10.65322058 11.40271126 8.678724 9.93136235 6.0625 7.9375 C3.20626254 5.74589512 0.47391618 3.6208815 -2 1 C-1.34 0.67 -0.68 0.34 0 0 Z " fill="#152942" transform="translate(191,87)"/>
<path d="M0 0 C0.66 0 1.32 0 2 0 C2.02690104 2.79173055 2.04679053 5.58320348 2.0625 8.375 C2.07087891 9.1690625 2.07925781 9.963125 2.08789062 10.78125 C2.11328125 16.7734375 2.11328125 16.7734375 1 19 C0.34 19 -0.32 19 -1 19 C-1.02705308 16.58325776 -1.04686438 14.1668206 -1.0625 11.75 C-1.07087891 11.06808594 -1.07925781 10.38617188 -1.08789062 9.68359375 C-1.10428392 6.30657446 -1.05628768 3.22708361 0 0 Z " fill="#192A58" transform="translate(226,122)"/>
<path d="M0 0 C2.475 0.495 2.475 0.495 5 1 C5 1.66 5 2.32 5 3 C5.66 3 6.32 3 7 3 C7 3.66 7 4.32 7 5 C7.66 5 8.32 5 9 5 C9 5.66 9 6.32 9 7 C10.32 7.66 11.64 8.32 13 9 C13 9.66 13 10.32 13 11 C8.1334614 10.58286812 6.20769467 8.54534674 3 5 C2.401875 4.443125 1.80375 3.88625 1.1875 3.3125 C0 2 0 2 0 0 Z " fill="#172840" transform="translate(89,282)"/>
<path d="M0 0 C0.33 0 0.66 0 1 0 C1.70419502 4.50684812 0.11680812 7.40338972 -2.296875 11.05859375 C-5.19732135 14.3648365 -8.87360565 16.51644368 -13 18 C-13.66 17.67 -14.32 17.34 -15 17 C-13.35 16.34 -11.7 15.68 -10 15 C-10 14.34 -10 13.68 -10 13 C-9.278125 12.484375 -8.55625 11.96875 -7.8125 11.4375 C-4.06036355 8.18564841 -2.205642 4.39251258 0 0 Z " fill="#162943" transform="translate(248,241)"/>
<path d="M0 0 C9.24 0 18.48 0 28 0 C28 0.66 28 1.32 28 2 C21.78829926 2.92159579 15.77390894 3.12177385 9.5 3.0625 C8.5821875 3.05798828 7.664375 3.05347656 6.71875 3.04882812 C4.47909609 3.03716326 2.23958455 3.02079614 0 3 C0 2.01 0 1.02 0 0 Z " fill="#223455" transform="translate(119,256)"/>
<path d="M0 0 C2 2.1875 2 2.1875 3 4 C0 4 0 4 -2.375 2.5 C-7.82780105 0.24366853 -13.17341569 0.76659084 -19 1 C-13.74036291 -4.25963709 -6.02327126 -3.63375754 0 0 Z " fill="#10213C" transform="translate(188,175)"/>
<path d="M0 0 C0.33 0 0.66 0 1 0 C1 5.28 1 10.56 1 16 C1.66 16.33 2.32 16.66 3 17 C2.34 17 1.68 17 1 17 C1 19.64 1 22.28 1 25 C1.66 25 2.32 25 3 25 C2.34 26.98 1.68 28.96 1 31 C-0.65 31 -2.3 31 -4 31 C-2.68 30.67 -1.36 30.34 0 30 C0 20.1 0 10.2 0 0 Z " fill="#131C28" transform="translate(208,111)"/>
<path d="M0 0 C0.33 4.62 0.66 9.24 1 14 C-2.99110319 11.00667261 -4.04539348 9.39786467 -6 5 C-1.125 0 -1.125 0 0 0 Z " fill="#162953" transform="translate(162,184)"/>
<path d="M0 0 C0.66 1.32 1.32 2.64 2 4 C0.21118264 5.00508801 -1.58114696 6.00392736 -3.375 7 C-4.37273437 7.556875 -5.37046875 8.11375 -6.3984375 8.6875 C-9 10 -9 10 -11 10 C-10.1875 7.5625 -10.1875 7.5625 -9 5 C-8.01 4.67 -7.02 4.34 -6 4 C-3.9819245 2.69418644 -1.97946592 1.36363208 0 0 Z " fill="#101F32" transform="translate(203,324)"/>
<path d="M0 0 C1.62580966 0.11398665 3.25067157 0.24155659 4.875 0.375 C5.77992188 0.44460937 6.68484375 0.51421875 7.6171875 0.5859375 C10 1 10 1 12 3 C8.59271925 5.09678815 5.96792579 5.4133256 2 5 C-0.375 3.5 -0.375 3.5 -2 2 C-1.34 2 -0.68 2 0 2 C0 1.34 0 0.68 0 0 Z " fill="#13254F" transform="translate(227,139)"/>
<path d="M0 0 C0.66 0.33 1.32 0.66 2 1 C0.10800184 4.50019659 -1.43206614 7.11692379 -5 9 C-8.75 9.1875 -8.75 9.1875 -12 9 C-11.67 8.01 -11.34 7.02 -11 6 C-9.906875 5.690625 -8.81375 5.38125 -7.6875 5.0625 C-3.88357199 3.96645295 -2.48346285 2.98015542 0 0 Z " fill="#0D1A2B" transform="translate(185,225)"/>
<path d="M0 0 C0.08133791 1.91595968 0.13934367 3.83291932 0.1875 5.75 C0.22230469 6.81734375 0.25710937 7.8846875 0.29296875 8.984375 C-0.02917214 12.30027855 -0.77148914 13.59016673 -3 16 C-3.66 15.67 -4.32 15.34 -5 15 C-4.71935082 12.68613705 -4.42518311 10.37390992 -4.125 8.0625 C-3.96257812 6.77472656 -3.80015625 5.48695313 -3.6328125 4.16015625 C-3.42398438 3.11730469 -3.21515625 2.07445312 -3 1 C-1 0 -1 0 0 0 Z " fill="#0C1B2F" transform="translate(195,184)"/>
<path d="M0 0 C0 0.99 0 1.98 0 3 C-1.75 4.38671875 -1.75 4.38671875 -4 5.6875 C-4.7425 6.12449219 -5.485 6.56148438 -6.25 7.01171875 C-6.8275 7.33785156 -7.405 7.66398437 -8 8 C-8.66 7.34 -9.32 6.68 -10 6 C-6.98112756 2.51668565 -4.43090471 1.20842856 0 0 Z " fill="#17263A" transform="translate(216,318)"/>
<path d="M0 0 C5.4389165 -0.21755666 9.87080814 -0.10428384 15 2 C15 2.33 15 2.66 15 3 C9.06 3 3.12 3 -3 3 C-2.01 2.67 -1.02 2.34 0 2 C0 1.34 0 0.68 0 0 Z " fill="#122149" transform="translate(147,256)"/>
<path d="M0 0 C1.32 0.33 2.64 0.66 4 1 C2.7260411 3.03833424 1.38938077 5.03852126 0 7 C-0.66 7 -1.32 7 -2 7 C-2.66 9.31 -3.32 11.62 -4 14 C-4.66 13.01 -5.32 12.02 -6 11 C-5.38245741 9.68397477 -4.75571258 8.37226444 -4.125 7.0625 C-3.77695313 6.33160156 -3.42890625 5.60070312 -3.0703125 4.84765625 C-2 3 -2 3 0 2 C0 1.34 0 0.68 0 0 Z " fill="#11243D" transform="translate(135,86)"/>
<path d="M0 0 C1.27310312 0.93441535 2.543388 1.87267111 3.8125 2.8125 C4.52019531 3.33457031 5.22789063 3.85664063 5.95703125 4.39453125 C7.78531393 5.83128877 9.39896688 7.31815763 11 9 C5.71201818 8.58525633 2.88309282 7.64775386 -1 4 C-0.67 2.68 -0.34 1.36 0 0 Z " fill="#13253E" transform="translate(110,249)"/>
<path d="M0 0 C0.99 0.33 1.98 0.66 3 1 C3 4.63 3 8.26 3 12 C2.01 12 1.02 12 0 12 C0 8.04 0 4.08 0 0 Z " fill="#0B1F61" transform="translate(45,84)"/>
<path d="M0 0 C0.99 0.33 1.98 0.66 3 1 C3 1.66 3 2.32 3 3 C3.66 3.33 4.32 3.66 5 4 C4.67 7.96 4.34 11.92 4 16 C3.67 16 3.34 16 3 16 C2.92652344 15.09507812 2.92652344 15.09507812 2.8515625 14.171875 C2.77679688 13.37265625 2.70203125 12.5734375 2.625 11.75 C2.55539063 10.96109375 2.48578125 10.1721875 2.4140625 9.359375 C1.98326166 6.90462303 1.12090052 5.20534899 0 3 C0 2.01 0 1.02 0 0 Z " fill="#18304A" transform="translate(190,179)"/>
<path d="M0 0 C1.74991334 -0.02715383 3.49994945 -0.04646551 5.25 -0.0625 C6.71179688 -0.07990234 6.71179688 -0.07990234 8.203125 -0.09765625 C10.65758678 -0.01195577 12.66168914 0.29293934 15 1 C15 1.66 15 2.32 15 3 C13.25034642 3.05429959 11.50020213 3.09292823 9.75 3.125 C8.77546875 3.14820313 7.8009375 3.17140625 6.796875 3.1953125 C3.9803502 2.99862781 2.39050964 2.44568916 0 1 C0 0.67 0 0.34 0 0 Z " fill="#0C2B87" transform="translate(164,141)"/>
<path d="M0 0 C2.875 0.25 2.875 0.25 6 1 C7.4375 2.9375 7.4375 2.9375 8 5 C7.67 5.66 7.34 6.32 7 7 C3.63983107 5.87994369 2.30935087 4.62788203 0 2 C0 1.34 0 0.68 0 0 Z " fill="#193149" transform="translate(199,71)"/>
<path d="M0 0 C0.7425 0.0825 1.485 0.165 2.25 0.25 C-0.13957269 3.49299151 -1.9547869 5.75902342 -5.75 7.25 C-6.08 6.26 -6.41 5.27 -6.75 4.25 C-3.42692308 0.31153846 -3.42692308 0.31153846 0 0 Z " fill="#122034" transform="translate(255.75,288.75)"/>
<path d="M0 0 C1.12377697 3.30435084 0.89554742 5.0506862 -0.4375 8.25 C-0.72496094 8.95640625 -1.01242187 9.6628125 -1.30859375 10.390625 C-1.53675781 10.92171875 -1.76492188 11.4528125 -2 12 C-2.99 11.67 -3.98 11.34 -5 11 C-4.690625 10.278125 -4.38125 9.55625 -4.0625 8.8125 C-2.92500584 6.05721403 -2.92500584 6.05721403 -2.5 3.25 C-2.335 2.5075 -2.17 1.765 -2 1 C-1.34 0.67 -0.68 0.34 0 0 Z " fill="#112034" transform="translate(300,218)"/>
<path d="M0 0 C0.33 0 0.66 0 1 0 C1 4.95 1 9.9 1 15 C0.01 14.67 -0.98 14.34 -2 14 C-2.04254356 12.00045254 -2.04080783 9.99958364 -2 8 C-1.67 7.67 -1.34 7.34 -1 7 C-0.63239269 4.67182036 -0.29758419 2.3381615 0 0 Z " fill="#132B50" transform="translate(47,113)"/>
<path d="M0 0 C1.6498275 0.42218816 3.29483665 0.86324425 4.9375 1.3125 C6.31228516 1.67794922 6.31228516 1.67794922 7.71484375 2.05078125 C8.46894531 2.36402344 9.22304687 2.67726562 10 3 C10.33 3.99 10.66 4.98 11 6 C9.54096742 5.69078116 8.08279278 5.37751201 6.625 5.0625 C5.81289062 4.88847656 5.00078125 4.71445312 4.1640625 4.53515625 C2 4 2 4 0 3 C0 2.01 0 1.02 0 0 Z " fill="#152C45" transform="translate(226,34)"/>
<path d="M0 0 C4.9723422 1.49170266 9.41845739 3.60457417 14 6 C11.3921814 6.98464547 10.31037786 7.1236295 7.67578125 6.07421875 C6.89589844 5.61660156 6.11601562 5.15898437 5.3125 4.6875 C4.52488281 4.23761719 3.73726562 3.78773438 2.92578125 3.32421875 C1 2 1 2 0 0 Z " fill="#1D2C3D" transform="translate(146,325)"/>
<path d="M0 0 C0.66 0.33 1.32 0.66 2 1 C1.40049704 4.68266103 0.75241109 8.34543185 0 12 C-0.99 11.67 -1.98 11.34 -3 11 C-2.69078116 9.54096742 -2.37751201 8.08279278 -2.0625 6.625 C-1.88847656 5.81289062 -1.71445313 5.00078125 -1.53515625 4.1640625 C-1 2 -1 2 0 0 Z " fill="#1C3150" transform="translate(149,100)"/>
<path d="M0 0 C0.66 0 1.32 0 2 0 C2 3.96 2 7.92 2 12 C1.01 11.34 0.02 10.68 -1 10 C-0.67 6.7 -0.34 3.4 0 0 Z " fill="#0B243C" transform="translate(46,73)"/>
<path d="M0 0 C3.6875 1.375 3.6875 1.375 7 3 C5 5 5 5 2.5625 5.3125 C-0.39279457 4.95209822 -1.18887927 4.28773145 -3 2 C-2.01 1.34 -1.02 0.68 0 0 Z " fill="#0C2236" transform="translate(194,67)"/>
<path d="M0 0 C0.66 0 1.32 0 2 0 C4.09230769 4.43076923 4.09230769 4.43076923 3.625 7.3125 C3.41875 7.869375 3.2125 8.42625 3 9 C0.27573689 6.64722731 -0.8141763 4.37503669 -2 1 C-1.34 1 -0.68 1 0 1 C0 0.67 0 0.34 0 0 Z " fill="#10253C" transform="translate(303,61)"/>
<path d="M0 0 C2 1 2 1 3 3 C1.03533587 4.06775224 -0.96855359 5.06553465 -3 6 C-5 5 -5 5 -6 3 C-4.03533587 1.93224776 -2.03144641 0.93446535 0 0 Z " fill="#101E30" transform="translate(189,332)"/>
<path d="M0 0 C1.32 0.66 2.64 1.32 4 2 C1.03 4.475 1.03 4.475 -2 7 C-2.33 6.01 -2.66 5.02 -3 4 C-1.5625 1.8125 -1.5625 1.8125 0 0 Z " fill="#0F1F35" transform="translate(141,78)"/>
<path d="M0 0 C2.72426311 2.35277269 3.8141763 4.62496331 5 8 C3.35 7.67 1.7 7.34 0 7 C-1.125 2.25 -1.125 2.25 0 0 Z " fill="#1A3241" transform="translate(60,239)"/>
<path d="M0 0 C0 0.99 0 1.98 0 3 C-1.45264038 3.8638129 -2.9123163 4.71580454 -4.375 5.5625 C-5.59316406 6.27599609 -5.59316406 6.27599609 -6.8359375 7.00390625 C-7.55007812 7.33261719 -8.26421875 7.66132813 -9 8 C-9.66 7.67 -10.32 7.34 -11 7 C-9.35 6.34 -7.7 5.68 -6 5 C-6 4.34 -6 3.68 -6 3 C-4.02 2.01 -2.04 1.02 0 0 Z " fill="#0E213C" transform="translate(244,251)"/>
<path d="M0 0 C0.99 0 1.98 0 3 0 C2.67 1.98 2.34 3.96 2 6 C0.68 6.33 -0.64 6.66 -2 7 C-1.34 4.69 -0.68 2.38 0 0 Z " fill="#102339" transform="translate(294,230)"/>
<path d="M0 0 C2.125 4.625 2.125 4.625 1 8 C0.566875 7.54625 0.13375 7.0925 -0.3125 6.625 C-2.10798342 4.79975666 -2.10798342 4.79975666 -5 3 C-2.25 0 -2.25 0 0 0 Z " fill="#0E263B" transform="translate(56,222)"/>
<path d="M0 0 C1.32 0.33 2.64 0.66 4 1 C4.33 2.98 4.66 4.96 5 7 C3.29115995 5.37660195 1.62553283 3.70680947 0 2 C0 1.34 0 0.68 0 0 Z " fill="#1C2D44" transform="translate(69,256)"/>
<path d="M0 0 C1.65 0 3.3 0 5 0 C4.67 1.98 4.34 3.96 4 6 C3.34 6 2.68 6 2 6 C2 4.68 2 3.36 2 2 C1.34 2 0.68 2 0 2 C0 1.34 0 0.68 0 0 Z " fill="#173549" transform="translate(45,193)"/>
<path d="M0 0 C0.99 0.33 1.98 0.66 3 1 C3 1.66 3 2.32 3 3 C4.65 3 6.3 3 8 3 C8 3.33 8 3.66 8 4 C1.25 4.125 1.25 4.125 -1 3 C-0.67 2.01 -0.34 1.02 0 0 Z " fill="#1D334D" transform="translate(171,229)"/>
<path d="M0 0 C1.65 0 3.3 0 5 0 C5.33 0.99 5.66 1.98 6 3 C4.02 3 2.04 3 0 3 C0 2.01 0 1.02 0 0 Z " fill="#122946" transform="translate(182,85)"/>
<path d="M0 0 C0 0.33 0 0.66 0 1 C-1.2065625 1.185625 -1.2065625 1.185625 -2.4375 1.375 C-3.283125 1.58125 -4.12875 1.7875 -5 2 C-5.33 2.66 -5.66 3.32 -6 4 C-6.99 3.67 -7.98 3.34 -9 3 C-9.33 2.34 -9.66 1.68 -10 1 C-6.78548731 -0.60725635 -3.56387464 -0.05748185 0 0 Z " fill="#0B1C35" transform="translate(173,65)"/>
<path d="M0 0 C0.33 0.66 0.66 1.32 1 2 C0.34 1.67 -0.32 1.34 -1 1 C-0.67 0.67 -0.34 0.34 0 0 Z " fill="#003E3E" transform="translate(209,326)"/>
<path d="" fill="#000000" transform="translate(0,0)"/>
<path d="M0 0 C0.99 0.495 0.99 0.495 2 1 C1.01 1.495 1.01 1.495 0 2 C0 1.34 0 0.68 0 0 Z " fill="#101F1F" transform="translate(203,79)"/>
<path d="" fill="#0000AE" transform="translate(0,0)"/>
<path d="" fill="#002B70" transform="translate(0,0)"/>
<path d="" fill="#002B2B" transform="translate(0,0)"/>
<path d="" fill="#002B2B" transform="translate(0,0)"/>
<path d="" fill="#002B2B" transform="translate(0,0)"/>
<path d="" fill="#002B2B" transform="translate(0,0)"/>
<path d="M0 0 C2 1 2 1 2 1 Z " fill="#003232" transform="translate(43,120)"/>
<path d="M0 0 C2 1 2 1 2 1 Z " fill="#222222" transform="translate(75,49)"/>
<path d="M0 0 C2 1 2 1 2 1 Z " fill="#222222" transform="translate(91,43)"/>
<path d="M0 0 C2 1 2 1 2 1 Z " fill="#222222" transform="translate(249,40)"/>
<path d="M0 0 C2 1 2 1 2 1 Z " fill="#222222" transform="translate(102,40)"/>
<path d="" fill="#000808" transform="translate(0,0)"/>
<path d="" fill="#004545" transform="translate(0,0)"/>
<path d="" fill="#004545" transform="translate(0,0)"/>
<path d="" fill="#004545" transform="translate(0,0)"/>
<path d="" fill="#000000" transform="translate(0,0)"/>
<path d="" fill="#000000" transform="translate(0,0)"/>
<path d="" fill="#004545" transform="translate(0,0)"/>
<path d="" fill="#004545" transform="translate(0,0)"/>
<path d="" fill="#0000AE" transform="translate(0,0)"/>
<path d="" fill="#004545" transform="translate(0,0)"/>
<path d="" fill="#000000" transform="translate(0,0)"/>
<path d="" fill="#000000" transform="translate(0,0)"/>
<path d="" fill="#0000AE" transform="translate(0,0)"/>
<path d="" fill="#000000" transform="translate(0,0)"/>
<path d="" fill="#000000" transform="translate(0,0)"/>
<path d="" fill="#004545" transform="translate(0,0)"/>
<path d="" fill="#004545" transform="translate(0,0)"/>
<path d="" fill="#004545" transform="translate(0,0)"/>
<path d="" fill="#000000" transform="translate(0,0)"/>
<path d="" fill="#004545" transform="translate(0,0)"/>
<path d="" fill="#000000" transform="translate(0,0)"/>
<path d="" fill="#000000" transform="translate(0,0)"/>
<path d="" fill="#000000" transform="translate(0,0)"/>
<path d="" fill="#004545" transform="translate(0,0)"/>
<path d="" fill="#004545" transform="translate(0,0)"/>
<path d="" fill="#004545" transform="translate(0,0)"/>
<path d="" fill="#004545" transform="translate(0,0)"/>
<path d="" fill="#004545" transform="translate(0,0)"/>
<path d="" fill="#000000" transform="translate(0,0)"/>
<path d="" fill="#000000" transform="translate(0,0)"/>
<path d="" fill="#004545" transform="translate(0,0)"/>
</svg>
